<?xml version="1.0" encoding="UTF-8" standalone="no"?>
<svg
   xmlns:dc="http://purl.org/dc/elements/1.1/"
   xmlns:cc="http://creativecommons.org/ns#"
   xmlns:rdf="http://www.w3.org/1999/02/22-rdf-syntax-ns#"
   xmlns:svg="http://www.w3.org/2000/svg"
   xmlns="http://www.w3.org/2000/svg"
   id="svg1914"
   version="1.1"
   viewBox="0 0 75.732933 97.455368"
   height="97.455368mm"
   width="75.732933mm">
  <defs
     id="defs1908" />
  <metadata
     id="metadata1911">
    <rdf:RDF>
      <cc:Work
         rdf:about="">
        <dc:format>image/svg+xml</dc:format>
        <dc:type
           rdf:resource="http://purl.org/dc/dcmitype/StillImage" />
        <dc:title></dc:title>
      </cc:Work>
    </rdf:RDF>
  </metadata>
  <g
     transform="translate(-117.85973,-137.90327)"
     id="layer1">
    <g
       transform="translate(52.452785,46.285958)"
       id="g1414">
      <path
         style="opacity:1;fill:#806600;fill-opacity:1;fill-rule:evenodd;stroke:none;stroke-width:0.0712679;stroke-linecap:butt;stroke-linejoin:miter;stroke-miterlimit:4;stroke-dasharray:none;stroke-dashoffset:0;stroke-opacity:1;paint-order:markers stroke fill"
         d="m 84.140503,151.38768 17.622367,1.9377 15.6362,-1.9377 v 37.685 H 84.140503 Z"
         id="rect1380" />
      <g
         id="g898">
        <path
           id="path68-3"
           style="fill:#003300;fill-opacity:1;fill-rule:nonzero;stroke:none;stroke-width:0.03527778"
           d="m 102.28457,189.07267 c 0,0 -1.1811,-31.07832 5.87869,-35.49651 7.05908,-4.41818 27.93894,9.59803 28.81171,13.55902 0.87383,3.96028 0,12.03537 -4.71417,21.93749 h -29.97623" />
        <path
           id="path70-6"
           style="fill:#004d00;fill-opacity:1;fill-rule:nonzero;stroke:none;stroke-width:0.03527778"
           d="m 102.21048,189.07267 c 0,0 1.18075,-31.07832 -5.87833,-35.49651 -7.05944,-4.41818 -27.9393,9.59803 -28.81278,13.55902 -0.87312,3.96028 0,12.03537 4.71488,21.93749 h 29.97623" />
        <path
           id="path138"
           style="fill:#550000;fill-opacity:1;fill-rule:nonzero;stroke:none;stroke-width:0.03527778"
           d="m 116.8079,182.95933 c -5.23275,-5.41623 0.3683,-11.79089 0.3683,-11.79089 0,0 -3.05929,3.39824 -6.8199,3.39824 -0.79763,0 -1.62736,-0.15297 -2.46556,-0.52381 3.46286,-1.14268 7.8112,-5.30546 3.97898,-10.09614 -1.22485,-1.53071 -2.73544,-2.19358 -4.22381,-2.45887 -0.51259,-1.35607 -1.92546,-5.50968 -2.53612,-11.53865 14.48506,-7.48697 11.93895,-18.54913 9.08103,-24.01671 -2.82222,-4.49157 -5.10064,1.28512 -10.91653,0.24866 -5.816253,-1.03646 -5.989473,-6.62235 -5.989473,-6.62235 -2.07327,5.8166 -6.111112,3.10414 -8.184392,6.32889 -3.310196,11.99153 0.08703,16.72045 8.633358,23.45911 -0.61136,6.02897 -1.256826,10.78533 -1.769766,12.14105 -1.48801,0.26529 -2.9979,0.92816 -4.2231,2.45887 -3.83187,4.79068 0.51647,8.95346 3.98004,10.09614 -0.83855,0.37084 -1.66793,0.52381 -2.46592,0.52381 -3.76026,0 -6.82025,-3.39824 -6.82025,-3.39824 0,0 5.60141,6.37466 0.36865,11.79089 1.08726,-7.35086 -7.07425,-12.15926 -7.07425,-12.15926 0,0 -1.89724,5.52704 3.68512,8.54893 -0.82127,0.35804 -1.58997,0.51111 -2.30576,0.51111 -4.29225,0 -6.64774,-5.52235 -6.64774,-5.52235 0,0 -0.71897,1.43648 0.47801,4.64263 -5.72946,-3.97937 -2.65218,-9.35881 -0.14676,-12.30673 2.50579,-2.94742 -2.21085,-6.11678 -3.97933,-9.43289 -1.76847,-3.31611 -0.81104,-5.52661 3.24203,-8.769 4.05342,-3.24273 0.58984,-8.47442 0.36865,-10.31769 -0.22119,-1.8415 1.54764,-2.21015 1.62137,-6.04273 0.0737,-3.83117 1.62172,-5.82119 3.53765,-7.8105 1.91523,-1.99037 -0.66357,-3.24273 1.76813,-9.87496 0,0 9.042554,4.14849 11.276783,2.46812 2.756592,-2.07324 -1.10022,-10.05848 -0.0017,-10.05848 1.98931,0 1.91558,-1.99002 4.27461,-3.31611 0.91828,-0.51647 2.91182,-0.7747 4.90537,-0.7747 1.99355,0 3.9871,0.25823 4.90538,0.7747 2.35902,1.32609 2.28529,3.31611 4.27461,3.31611 1.61253,0 0.65746,4.69258 3.71629,8.46363 0.7147,0.88112 7.09799,-2.12948 7.55849,-0.87327 2.4324,6.63223 -0.14711,7.88459 1.76882,9.87496 1.91559,1.98931 3.46322,3.97933 3.53695,7.8105 0.0741,3.83258 1.84291,4.20123 1.62172,6.04273 -0.22119,1.84327 -3.68441,7.07496 0.36866,10.31769 4.05306,3.24239 5.0105,5.45289 3.24202,8.769 -1.76847,3.31611 -6.48511,6.48547 -3.97933,9.43289 2.50543,2.94792 5.58236,8.32736 -0.14676,12.30673 1.19698,-3.20615 0.47802,-4.64263 0.47802,-4.64263 0,0 -2.35515,5.52235 -6.6481,5.52235 -0.71508,0 -1.48484,-0.15335 -2.3054,-0.51111 5.58271,-3.02189 3.68511,-8.54893 3.68511,-8.54893 0,0 -8.16151,4.8084 -7.07425,12.15926" />
        <path
           id="path72-6"
           style="fill:#004200;fill-opacity:1;fill-rule:nonzero;stroke:none;stroke-width:0.03527778"
           d="m 102.35442,184.54935 c 0,0 -0.28716,-35.92336 6.50769,-44.71953 l 27.36603,10.2803 -26.39095,14.21342 8.80286,9.97162 -16.28563,10.25419" />
        <path
           id="path74-5"
           style="fill:#005500;fill-opacity:1;fill-rule:nonzero;stroke:none;stroke-width:0.03527778"
           d="m 101.80479,184.6125 c 0,0 0.40569,-35.54237 -9.13906,-44.78268 l -24.62178,10.2803 26.73986,14.15098 -9.84533,8.96761 16.86631,11.38379" />
        <path
           id="path76-8"
           style="fill:#ffffff;fill-opacity:1;fill-rule:nonzero;stroke:none;stroke-width:0.03527778"
           d="m 119.37771,129.85433 c 0,11.18693 -7.62247,20.25579 -17.0247,20.25579 -9.4033,0 -17.02612,-9.06886 -17.02612,-20.25579 0,-11.18765 7.62282,-20.2565 17.02612,-20.2565 9.40223,0 17.0247,9.06885 17.0247,20.2565" />
        <path
           id="path78-6"
           style="fill:#004200;fill-opacity:1;fill-rule:nonzero;stroke:none;stroke-width:0.03527778"
           d="m 141.13987,119.2022 c 0,4.04989 -16.95309,7.33354 -37.86611,7.33354 -20.91338,0 -37.86682,-3.28365 -37.86682,-7.33354 0,-4.05095 16.95344,-7.33425 37.86682,-7.33425 20.91302,0 37.86611,3.2833 37.86611,7.33425" />
        <path
           id="path80-5"
           style="fill:#004200;fill-opacity:1;fill-rule:nonzero;stroke:none;stroke-width:0.03527778"
           d="m 86.94297,112.9157 c 0,0 3.76131,-20.081171 7.42844,-20.256149 3.66677,-0.174625 6.2865,5.413376 10.65212,1.920875 4.36528,-3.492147 8.3813,-9.0805 14.58031,18.335274 0,0 -16.51564,6.98429 -32.66087,0" />
        <path
           id="path106"
           style="fill:#806600;fill-opacity:1;fill-rule:nonzero;stroke:none;stroke-width:0.03527778"
           d="m 87.39981,110.65263 c 0,0 17.81564,4.52508 31.4258,0 l 0.77823,2.26307 c 0,0 -2.48073,3.86397 -15.45696,3.68935 -12.97552,-0.17463 -17.20391,-3.68935 -17.20391,-3.68935 l 0.45684,-2.26307" />
        <g
           style="fill:#222b00"
           transform="matrix(0.07482753,0,0,0.07482753,83.993034,115.78661)"
           id="g3406">
          <g
             style="fill:#222b00"
             transform="matrix(1.25,0,0,-1.25,0,45)"
             id="g3348">
            <g
               style="fill:#222b00"
               id="g3346">
              <g
                 style="fill:#222b00"
                 id="g3344">
                <path
                   style="fill:#222b00"
                   d="m 2.039,-117.347 c 2.731,-2.719 16.35,-10.9 19.081,-19.058 2.731,-8.158 8.192,-60.382 24.553,-74.012 16.885,-14.017 80.521,-8.795 92.718,-2.731 27.273,13.596 30.618,57.515 35.442,76.743 2.719,10.889 19.081,10.889 19.081,10.889 0,0 16.373,0 19.092,-10.877 4.824,-19.24 8.192,-63.283 35.442,-76.857 12.208,-6.087 75.844,-11.31 92.752,2.708 16.327,13.619 21.788,65.98 24.519,74.149 2.708,8.158 16.35,16.327 19.081,19.046 2.742,2.719 2.742,13.608 0,16.338 -5.45,5.439 -69.791,10.286 -139.071,2.719 -13.824,-1.513 -19.081,-5.45 -51.814,-5.45 -32.711,0 -37.99,3.937 -51.803,5.439 -69.258,7.578 -133.623,2.731 -139.073,-2.708 -2.719,-2.73 -2.719,-13.619 0,-16.338"
                   id="path3342" />
              </g>
            </g>
          </g>
          <g
             style="fill:#222b00"
             id="g3350" />
          <g
             style="fill:#222b00"
             id="g3352" />
          <g
             style="fill:#222b00"
             id="g3354" />
          <g
             style="fill:#222b00"
             id="g3356" />
          <g
             style="fill:#222b00"
             id="g3358" />
          <g
             style="fill:#222b00"
             id="g3360" />
          <g
             style="fill:#222b00"
             id="g3362" />
          <g
             style="fill:#222b00"
             id="g3364" />
          <g
             style="fill:#222b00"
             id="g3366" />
          <g
             style="fill:#222b00"
             id="g3368" />
          <g
             style="fill:#222b00"
             id="g3370" />
          <g
             style="fill:#222b00"
             id="g3372" />
          <g
             style="fill:#222b00"
             id="g3374" />
          <g
             style="fill:#222b00"
             id="g3376" />
          <g
             style="fill:#222b00"
             id="g3378" />
        </g>
      </g>
    </g>
  </g>
</svg>
